<svg width="14" height="16" viewBox="0 0 14 16" fill="none" xmlns="http://www.w3.org/2000/svg">
<path d="M6.30979 12.9251L6.45767 10.7069C6.50352 10.0191 6.52645 9.67524 6.37887 9.41468C6.31577 9.30329 6.23188 9.20505 6.13174 9.12529C5.8975 8.93873 5.55425 8.90753 4.86776 8.84512C3.7305 8.74173 3.16187 8.69004 2.89662 8.37094C2.78572 8.23752 2.71143 8.07754 2.68107 7.90672C2.60845 7.49818 2.93588 7.03042 3.59075 6.0949L6.41837 2.05544C6.99956 1.22517 7.29015 0.810035 7.54078 0.898309C7.79141 0.986584 7.7577 1.4922 7.69028 2.50343L7.5424 4.72163C7.49655 5.40943 7.47362 5.75333 7.6212 6.01389C7.68429 6.12528 7.76819 6.22353 7.86833 6.30328C8.10257 6.48984 8.44582 6.52105 9.13231 6.58345C10.2696 6.68684 10.8382 6.73853 11.1034 7.05763C11.2144 7.19105 11.2886 7.35103 11.319 7.52186C11.3916 7.93039 11.0642 8.39815 10.4093 9.33367L10.4093 9.33367L7.5817 13.3731C7.00051 14.2034 6.70992 14.6185 6.45929 14.5303C6.20866 14.442 6.24237 13.9364 6.30979 12.9251Z" stroke="black"/>
<path d="M12.5715 0.857117L11.2858 2.5714H13.0001L11.7143 4.28569" stroke="black" stroke-linecap="round" stroke-linejoin="round"/>
<path d="M2.28571 11.1429L1 12.8572H2.71429L1.42857 14.5715" stroke="black" stroke-linecap="round" stroke-linejoin="round"/>
</svg>
