<svg width="12" height="15" viewBox="0 0 12 15" fill="none" xmlns="http://www.w3.org/2000/svg">
<path d="M2.0625 14.1016C1.92188 14.1016 1.85156 14.0391 1.85156 13.9141C1.85156 13.7839 1.89062 13.625 1.96875 13.4375C2.05208 13.2552 2.14062 13.0859 2.23438 12.9297C2.32812 12.7682 2.38802 12.6641 2.41406 12.6172C2.54948 12.3568 2.74479 11.9844 3 11.5C3.26042 11.0104 3.55469 10.4531 3.88281 9.82812C4.21615 9.20312 4.5625 8.55469 4.92188 7.88281C5.28125 7.20573 5.63021 6.54427 5.96875 5.89844C6.3125 5.2526 6.625 4.66406 6.90625 4.13281C7.1875 3.60156 7.41667 3.16927 7.59375 2.83594C7.77083 2.5026 7.8724 2.3125 7.89844 2.26562C8.13281 1.92708 8.32292 1.65365 8.46875 1.44531C8.61458 1.23177 8.7526 1.07031 8.88281 0.960938C9.01823 0.846354 9.18229 0.768229 9.375 0.726562C9.57292 0.684896 9.83854 0.664062 10.1719 0.664062C10.2135 0.664062 10.25 0.690104 10.2812 0.742188C10.3125 0.794271 10.3281 0.854167 10.3281 0.921875C10.3281 0.9375 10.3229 0.979167 10.3125 1.04688C10.3021 1.10938 10.2917 1.15365 10.2812 1.17969L3.24219 12.6953C3.15365 12.8411 3.04688 13.026 2.92188 13.25C2.80208 13.474 2.66927 13.6719 2.52344 13.8438C2.38281 14.0156 2.22917 14.1016 2.0625 14.1016ZM2.61719 6.29688C2.21094 6.29688 1.88281 6.17188 1.63281 5.92188C1.38802 5.66667 1.21094 5.36198 1.10156 5.00781C0.992188 4.65365 0.9375 4.32552 0.9375 4.02344C0.9375 3.60156 1.01823 3.16927 1.17969 2.72656C1.34635 2.27865 1.59896 1.90365 1.9375 1.60156C2.27604 1.29427 2.71094 1.14062 3.24219 1.14062C3.70052 1.14062 4.0599 1.26562 4.32031 1.51562C4.58594 1.76042 4.77344 2.0625 4.88281 2.42188C4.9974 2.78125 5.05469 3.13281 5.05469 3.47656C5.05469 3.91927 4.96094 4.35677 4.77344 4.78906C4.59115 5.22135 4.32031 5.58073 3.96094 5.86719C3.60156 6.15365 3.15365 6.29688 2.61719 6.29688ZM2.46094 5.39844C2.69531 5.39844 2.90625 5.3151 3.09375 5.14844C3.28125 4.98177 3.4401 4.77083 3.57031 4.51562C3.70573 4.26042 3.80729 4 3.875 3.73438C3.94271 3.46875 3.97656 3.23958 3.97656 3.04688C3.97656 2.86979 3.9349 2.67188 3.85156 2.45312C3.76823 2.22917 3.61458 2.11719 3.39062 2.11719C3.15625 2.11719 2.95573 2.20573 2.78906 2.38281C2.6276 2.5599 2.49479 2.78125 2.39062 3.04688C2.29167 3.3125 2.21615 3.58073 2.16406 3.85156C2.11719 4.11719 2.09375 4.34115 2.09375 4.52344C2.09375 4.60156 2.09896 4.71094 2.10938 4.85156C2.125 4.99219 2.15885 5.11979 2.21094 5.23438C2.26302 5.34375 2.34635 5.39844 2.46094 5.39844ZM8.66406 13.2266C8.26302 13.2266 7.9375 13.099 7.6875 12.8438C7.44271 12.5885 7.26302 12.2839 7.14844 11.9297C7.03906 11.5755 6.98438 11.25 6.98438 10.9531C6.98438 10.5312 7.0651 10.0964 7.22656 9.64844C7.39323 9.19531 7.64583 8.8151 7.98438 8.50781C8.32292 8.19531 8.75781 8.03906 9.28906 8.03906C9.7474 8.03906 10.1068 8.16406 10.3672 8.41406C10.6328 8.65885 10.8203 8.96094 10.9297 9.32031C11.0443 9.67969 11.1016 10.0312 11.1016 10.375C11.1016 10.8229 11.0104 11.2656 10.8281 11.7031C10.651 12.1406 10.3828 12.5052 10.0234 12.7969C9.66406 13.0833 9.21094 13.2266 8.66406 13.2266ZM8.50781 12.3281C8.74219 12.3281 8.95312 12.2448 9.14062 12.0781C9.33333 11.9115 9.49479 11.7005 9.625 11.4453C9.75521 11.1901 9.85417 10.9297 9.92188 10.6641C9.99479 10.3984 10.0312 10.1693 10.0312 9.97656C10.0312 9.79427 9.99219 9.58854 9.91406 9.35938C9.83594 9.13021 9.67708 9.01562 9.4375 9.01562C9.20312 9.01562 9.00521 9.10677 8.84375 9.28906C8.68229 9.46615 8.54948 9.6901 8.44531 9.96094C8.34635 10.2266 8.27344 10.4948 8.22656 10.7656C8.17969 11.0312 8.15625 11.2526 8.15625 11.4297C8.15625 11.5026 8.16146 11.612 8.17188 11.7578C8.1875 11.9036 8.21875 12.0365 8.26562 12.1562C8.31771 12.2708 8.39844 12.3281 8.50781 12.3281Z" fill="black"/>
</svg>
